<svg width="179" height="32" viewBox="0 0 179 32" fill="none" xmlns="http://www.w3.org/2000/svg">
<mask id="mask0" mask-type="alpha" maskUnits="userSpaceOnUse" x="0" y="8" width="18" height="20">
<path d="M0 8.12712H17.0823V27.3072H0V8.12712Z" fill="white"/>
</mask>
<g mask="url(#mask0)">
<path fill-rule="evenodd" clip-rule="evenodd" d="M0.741673 17.8865L10.501 8.12712L16.3407 13.967C17.3295 14.9558 17.3295 16.559 16.3407 17.5481L6.58135 27.3072L0.741673 21.4675C-0.247367 20.4787 -0.247367 18.8755 0.741673 17.8865Z" fill="#12C264"/>
</g>
<mask id="mask1" mask-type="alpha" maskUnits="userSpaceOnUse" x="11" y="0" width="17" height="14">
<path d="M11.8067 0.239998H27.0671V13.403H11.8067V0.239998Z" fill="white"/>
</mask>
<g mask="url(#mask1)">
<path fill-rule="evenodd" clip-rule="evenodd" d="M11.8067 6.8215L17.6466 0.981575C18.6354 -0.00722504 20.2386 -0.00722504 21.2274 0.981575L27.0671 6.8215L21.2274 12.6614C20.2386 13.6502 18.6354 13.6502 17.6466 12.6614L11.8067 6.8215Z" fill="#12C264"/>
</g>
<mask id="mask2" mask-type="alpha" maskUnits="userSpaceOnUse" x="11" y="18" width="17" height="14">
<path d="M11.8067 18.112H27.0671V31.2749H11.8067V18.112Z" fill="white"/>
</mask>
<g mask="url(#mask2)">
<path fill-rule="evenodd" clip-rule="evenodd" d="M11.8067 24.6934L17.6466 18.8537C18.6354 17.8647 20.2386 17.8647 21.2274 18.8537L27.0671 24.6934L21.2274 30.5333C20.2386 31.5221 18.6354 31.5221 17.6466 30.5333L11.8067 24.6934Z" fill="#12C264"/>
</g>
<path fill-rule="evenodd" clip-rule="evenodd" d="M22.533 13.967L32.728 3.77206L38.5677 9.61198C39.5565 10.6008 39.5565 12.204 38.5677 13.193L28.373 23.3877L22.533 17.5481C21.5442 16.559 21.5442 14.9558 22.533 13.967Z" fill="#12C264"/>
<path fill-rule="evenodd" clip-rule="evenodd" d="M54.8041 21.4134H58.4205C59.8345 21.4134 60.8677 20.4073 60.8677 19.1022C60.8677 17.797 59.8345 16.8723 58.3933 16.8723H54.8041V21.4134ZM54.8041 13.6366H57.5505C58.7469 13.6366 59.5897 12.7938 59.5897 11.6245C59.5897 10.5097 58.7469 9.66679 57.5776 9.66679H54.8041V13.6366ZM50.6982 25.0297V6.07759H58.2301C59.7529 6.07759 61.0309 6.53983 62.0641 7.46431C63.1245 8.36167 63.6412 9.53071 63.6412 10.9177C63.6412 12.7393 62.7441 14.1805 61.2213 14.7243C63.6412 15.1592 65.0281 17.0084 65.0281 19.4283C65.0281 21.0327 64.4841 22.3921 63.3693 23.4526C62.2816 24.5132 60.9222 25.0297 59.2636 25.0297H50.6982Z" fill="white"/>
<path fill-rule="evenodd" clip-rule="evenodd" d="M69.3789 13.3648C70.5753 13.3648 71.6087 14.3709 71.6087 15.5673C71.6087 16.7908 70.5753 17.7969 69.3789 17.7969C68.1825 17.7969 67.1493 16.7908 67.1493 15.5673C67.1493 14.3709 68.1825 13.3648 69.3789 13.3648Z" fill="white"/>
<path fill-rule="evenodd" clip-rule="evenodd" d="M78.8685 15.105H82.4306C83.0015 15.105 83.5725 14.9147 84.0892 14.5067C84.6059 14.0989 84.8778 13.4193 84.8778 12.4948C84.8778 11.5701 84.6059 10.9175 84.0892 10.5097C83.5725 10.1017 83.0015 9.8843 82.4306 9.8843H78.8685V15.105ZM74.681 25.0297V6.07742H82.6751C84.2795 6.07742 85.7207 6.67574 87.053 7.84502C88.3854 9.0143 89.0651 10.564 89.0651 12.4948C89.0651 14.3437 88.4126 15.8663 87.1074 17.0898C85.8023 18.3136 84.3338 18.9117 82.6751 18.9117H78.8685V25.0297H74.681Z" fill="white"/>
<path fill-rule="evenodd" clip-rule="evenodd" d="M91.2136 25.0297V11.3253H95.265V13.2016C95.8905 11.8149 97.3588 11.0262 99.2349 11.0262C99.5068 11.0262 99.8603 11.0536 100.295 11.1078V14.9147C99.8874 14.8331 99.4252 14.7786 98.9358 14.7786C96.6244 14.7786 95.265 16.084 95.265 18.3407V25.0297H91.2136Z" fill="white"/>
<path fill-rule="evenodd" clip-rule="evenodd" d="M106.142 20.7336C106.822 21.4133 107.665 21.7668 108.671 21.7668C109.677 21.7668 110.52 21.4133 111.199 20.7336C111.879 20.0266 112.233 19.1837 112.233 18.1776C112.233 17.1713 111.879 16.3287 111.199 15.6488C110.52 14.9417 109.677 14.5884 108.671 14.5884C107.665 14.5884 106.822 14.9417 106.142 15.6488C105.462 16.3287 105.109 17.1713 105.109 18.1776C105.109 19.1837 105.462 20.0537 106.142 20.7336ZM114.055 13.0385C115.55 14.4252 116.284 16.1384 116.284 18.1776C116.284 20.2169 115.55 21.9298 114.055 23.3439C112.559 24.7306 110.764 25.4376 108.671 25.4376C106.55 25.4376 104.755 24.7306 103.26 23.3439C101.791 21.9298 101.057 20.2169 101.057 18.1776C101.057 16.1384 101.791 14.4252 103.26 13.0385C104.755 11.6244 106.55 10.9176 108.671 10.9176C110.764 10.9176 112.559 11.6244 114.055 13.0385Z" fill="white"/>
<path fill-rule="evenodd" clip-rule="evenodd" d="M119.303 25.0297V14.9961H117.481V11.3253H119.303V6.07742H123.246V11.3253H126.264V14.9961H123.246V25.0297H119.303Z" fill="white"/>
<path fill-rule="evenodd" clip-rule="evenodd" d="M131.974 20.7336C132.654 21.4133 133.497 21.7668 134.503 21.7668C135.509 21.7668 136.352 21.4133 137.032 20.7336C137.712 20.0266 138.065 19.1837 138.065 18.1776C138.065 17.1713 137.712 16.3287 137.032 15.6488C136.352 14.9417 135.509 14.5884 134.503 14.5884C133.497 14.5884 132.654 14.9417 131.974 15.6488C131.294 16.3287 130.941 17.1713 130.941 18.1776C130.941 19.1837 131.294 20.0537 131.974 20.7336ZM139.887 13.0385C141.382 14.4252 142.117 16.1384 142.117 18.1776C142.117 20.2169 141.382 21.9298 139.887 23.3439C138.391 24.7306 136.597 25.4376 134.503 25.4376C132.382 25.4376 130.588 24.7306 129.092 23.3439C127.624 21.9298 126.889 20.2169 126.889 18.1776C126.889 16.1384 127.624 14.4252 129.092 13.0385C130.588 11.6244 132.382 10.9176 134.503 10.9176C136.597 10.9176 138.391 11.6244 139.887 13.0385Z" fill="white"/>
<path fill-rule="evenodd" clip-rule="evenodd" d="M155.522 12.1411V16.0567C154.462 15.0506 153.129 14.561 151.579 14.561C150.464 14.561 149.513 14.8874 148.778 15.5674C148.045 16.247 147.691 17.0899 147.691 18.1505C147.691 20.2169 149.323 21.7123 151.579 21.7123C153.157 21.7123 154.462 21.223 155.522 20.244V24.1322C154.435 24.9754 153.02 25.3831 151.253 25.3831C149.051 25.3831 147.229 24.7034 145.788 23.3438C144.347 21.9571 143.639 20.244 143.639 18.1505C143.639 16.0567 144.347 14.3436 145.788 12.9569C147.229 11.5702 149.051 10.8905 151.253 10.8905C152.966 10.8905 154.407 11.2982 155.522 12.1411Z" fill="white"/>
<path fill-rule="evenodd" clip-rule="evenodd" d="M162.375 20.7336C163.055 21.4133 163.897 21.7668 164.904 21.7668C165.91 21.7668 166.752 21.4133 167.432 20.7336C168.112 20.0266 168.466 19.1837 168.466 18.1776C168.466 17.1713 168.112 16.3287 167.432 15.6488C166.752 14.9417 165.91 14.5884 164.904 14.5884C163.897 14.5884 163.055 14.9417 162.375 15.6488C161.695 16.3287 161.341 17.1713 161.341 18.1776C161.341 19.1837 161.695 20.0537 162.375 20.7336ZM170.287 13.0385C171.783 14.4252 172.517 16.1384 172.517 18.1776C172.517 20.2169 171.783 21.9298 170.287 23.3439C168.792 24.7306 166.997 25.4376 164.904 25.4376C162.783 25.4376 160.988 24.7306 159.492 23.3439C158.024 21.9298 157.29 20.2169 157.29 18.1776C157.29 16.1384 158.024 14.4252 159.492 13.0385C160.988 11.6244 162.783 10.9176 164.904 10.9176C166.997 10.9176 168.792 11.6244 170.287 13.0385Z" fill="white"/>
<mask id="mask3" mask-type="alpha" maskUnits="userSpaceOnUse" x="0" y="0" width="179" height="32">
<path d="M0 31.2749H178.69V0.239998H0V31.2749Z" fill="white"/>
</mask>
<g mask="url(#mask3)">
<path fill-rule="evenodd" clip-rule="evenodd" d="M174.638 25.0298H178.69V6.07751H174.638V25.0298Z" fill="white"/>
</g>
</svg>
